<svg width="204" height="204" viewBox="0 0 204 204" fill="none" xmlns="http://www.w3.org/2000/svg">
<path d="M0 94.7143C0 50.0655 0 27.7411 13.8706 13.8706C27.7411 0 50.0655 0 94.7143 0H109.286C153.935 0 176.259 0 190.129 13.8706C204 27.7411 204 50.0655 204 94.7143V109.286C204 153.935 204 176.259 190.129 190.129C176.259 204 153.935 204 109.286 204H94.7143C50.0655 204 27.7411 204 13.8706 190.129C0 176.259 0 153.935 0 109.286V94.7143Z" fill="#004FA3"/>
<path d="M136.264 127.382V127.366C117.986 127.126 105.925 122.683 105.925 103.139L105.885 90.2461H115.301L115.341 103.139C115.341 116.101 121.25 118.412 137.9 118.412H138.527C146.217 118.334 154.787 116.915 160.459 114.799V90.2538H169.875V126.606H160.459V124.296C152.76 126.56 143.93 127.389 137.9 127.389H136.272L136.264 127.382Z" fill="white"/>
<path d="M64.4378 127.395V127.38C46.6479 127.155 34.75 122.938 34.1234 104.711H34.099L34.0664 103.16V76.5996H43.4741V90.2676H99.6677V99.2375H43.4741L43.5066 103.16C43.5066 116.123 49.4149 118.425 66.0654 118.425H66.6921C74.3826 118.348 82.952 116.929 88.6243 114.813V102.912H98.0401V126.62H88.6243V124.31C80.9256 126.574 72.0958 127.403 66.0654 127.403H64.4378V127.395Z" fill="white"/>
</svg>
