<svg width="123" height="22" viewBox="0 0 123 22" fill="none" xmlns="http://www.w3.org/2000/svg">
<path d="M43.1762 21.9576V21.9509C35.4582 21.8473 30.3656 19.931 30.3656 11.5001L30.3484 5.9386H34.3242L34.3414 11.5001C34.3414 17.0917 36.8362 18.0883 43.8669 18.0883H44.1315C47.3788 18.0549 50.9972 17.4429 53.3923 16.5299V5.94194H57.3682V21.6232H53.3923V20.6266C50.1416 21.6031 46.4132 21.961 43.8669 21.961H43.1796L43.1762 21.9576Z" fill="#B3B3B3"/>
<path d="M43.8668 22.0001H43.1383V21.9934C38.7398 21.9299 35.8774 21.2811 33.8568 19.8832C31.4823 18.2411 30.3277 15.5022 30.3277 11.5025L30.3105 5.89746H34.3723V5.93759L34.3895 11.4991C34.3895 17.0573 36.8739 18.0438 43.8703 18.0438H44.1349C47.3444 18.0137 50.9594 17.4051 53.3545 16.4988V5.89746H57.4162V21.6623H53.3545V20.6791C49.2447 21.9031 45.0592 21.9968 43.8703 21.9968L43.8668 22.0001ZM43.2208 21.9165H43.8668C45.0592 21.9165 49.2653 21.8195 53.3786 20.5855L53.4335 20.5688V21.5821H57.3234V5.98107H53.4335V16.5556L53.406 16.5657C51.0041 17.482 47.3616 18.0973 44.128 18.1274H43.8634C36.8018 18.1274 34.2967 17.1242 34.2967 11.4991L34.2795 5.98107H30.3896L30.4068 11.5025C30.4068 15.4721 31.5511 18.191 33.9015 19.8163C35.9152 21.2075 38.7742 21.853 43.1761 21.9132L43.2174 21.9198L43.2208 21.9165Z" fill="#B3B3B3"/>
<path d="M73.2054 21.9561V21.9494C65.6971 21.849 60.6698 20.0298 60.4052 12.1674H60.3948L60.3811 11.4985V0.0444336H64.3569V5.94037H88.0813V9.80969H64.3569L64.3707 11.5019C64.3707 17.0935 66.8654 18.0867 73.8961 18.0867H74.1607C77.4081 18.0533 81.0265 17.4413 83.4216 16.5283V11.3949H87.3974V21.6216H83.4216V20.625C80.1709 21.6016 76.4425 21.9594 73.8961 21.9594H73.2089L73.2054 21.9561Z" fill="#B3B3B3"/>
<path d="M73.8927 21.9986H73.1642V21.9919C68.8894 21.9317 66.0819 21.3197 64.0682 20.0054C61.7109 18.4704 60.5013 15.922 60.3673 12.2099H60.357L60.3433 11.5009V0H64.405V5.89594H88.1293V9.84886H64.405L64.4187 11.5009C64.4187 17.0558 66.9032 18.0457 73.8995 18.0457H74.1641C77.3737 18.0156 80.9887 17.4069 83.3838 16.5006V11.3538H87.4455V21.6641H83.3838V20.6809C79.2739 21.9049 75.0885 21.9986 73.8995 21.9986H73.8927ZM73.2466 21.915H73.8927C75.0851 21.915 79.2911 21.818 83.4044 20.584L83.4594 20.5672V21.5805H87.3493V11.4374H83.4594V16.5575L83.4319 16.5675C81.0299 17.4838 77.3874 18.0992 74.1538 18.1293H73.8892C66.8276 18.1293 64.3225 17.1293 64.3225 11.5009L64.3088 9.76525H88.0331V5.97955H64.3088V0.0836066H60.4189V11.5009L60.4326 12.1296H60.4429V12.1698C60.5701 15.8719 61.7693 18.4135 64.1095 19.9385C66.1197 21.2461 68.9237 21.8548 73.202 21.9116L73.2432 21.9183L73.2466 21.915Z" fill="#B3B3B3"/>
<path d="M12.8695 21.9561V21.9494C5.35772 21.8524 0.333817 20.0331 0.0692203 12.1707H0.0589113L0.045166 11.5019V0.0444336H4.01755V5.94037H27.7453V9.80969H4.01755L4.0313 11.5019C4.0313 17.0935 6.52606 18.0867 13.5568 18.0867H13.8214C17.0687 18.0533 20.6871 17.4413 23.0823 16.5283V11.3949H27.0581V21.6216H23.0823V20.625C19.8315 21.6016 16.1031 21.9594 13.5568 21.9594H12.8695V21.9561Z" fill="#B3B3B3"/>
<path d="M13.5563 21.9986H12.8278V21.9919C8.553 21.9317 5.74552 21.3197 3.73184 20.0054C1.37109 18.4704 0.158071 15.922 0.0274905 12.2099H0.0137453L0 11.5009V0H4.06173V5.89594H27.7861V9.84886H4.06173L4.07547 11.5009C4.07547 17.0558 6.55993 18.0457 13.5563 18.0457H13.8209C17.0304 18.0156 20.6454 17.4069 23.0405 16.5006V11.3538H27.1022V21.6641H23.0405V20.6809C18.9307 21.9049 14.7452 21.9986 13.5563 21.9986ZM12.9102 21.915H13.5563C14.7487 21.915 18.9547 21.818 23.068 20.584L23.123 20.5672V21.5805H27.0129V11.4374H23.123V16.5575L23.0955 16.5675C20.6935 17.4838 17.051 18.0992 13.8174 18.1293H13.5528C6.49121 18.1293 3.98613 17.1293 3.98613 11.5009L3.97238 9.76525H27.7002V5.97955H3.97582V0.0836066H0.085908V11.5009L0.0996532 12.1296H0.109962V12.1698C0.237106 15.8719 1.43638 18.4135 3.77651 19.9385C5.78676 21.2461 8.5908 21.8548 12.869 21.9116L12.9102 21.9183V21.915Z" fill="#B3B3B3"/>
<path d="M121.968 0.0444336H113.755V16.5283C111.356 17.4413 107.738 18.0533 104.491 18.0867H104.229C97.1987 18.0867 94.7039 17.0902 94.7039 11.4985L94.6867 5.93703H90.7144L90.7281 11.5019C90.7281 19.9294 95.8207 21.849 103.539 21.9494V21.9561H104.226C106.772 21.9561 110.501 21.5982 113.755 20.625V21.6216H117.738V3.91709H121.968V0.0444336Z" fill="#B3B3B3"/>
<path d="M104.229 21.9986H103.501V21.9919C99.1058 21.9317 96.2399 21.2796 94.2194 19.885C91.8449 18.243 90.6903 15.504 90.6903 11.5043L90.6765 5.89928H94.7348V5.93941L94.752 11.5009C94.752 17.0591 97.2365 18.049 104.233 18.049H104.494C107.703 18.0156 111.318 17.4102 113.714 16.5039V0H122.012V3.95961H117.782V21.6608H113.714V20.6809C109.597 21.9016 105.415 21.9986 104.229 21.9986ZM103.583 21.915H104.229C105.418 21.915 109.621 21.818 113.745 20.5873L113.8 20.5706V21.5805H117.696V3.876H121.926V0.0836066H113.8V16.5575L113.772 16.5675C111.367 17.4838 107.724 18.0958 104.494 18.1293H104.233C97.1712 18.1293 94.6661 17.126 94.6661 11.4976L94.6489 5.97955H90.7624L90.7762 11.5009C90.7762 15.4706 91.9205 18.1895 94.2709 19.8148C96.2846 21.206 99.1436 21.8514 103.546 21.9083H103.587V21.915H103.583Z" fill="#B3B3B3"/>
</svg>
