<svg width="24" height="24" viewBox="0 0 24 24" fill="none" xmlns="http://www.w3.org/2000/svg">
<path d="M1.9386 1.9386L1.9386 1.9386C2.66047 1.21672 3.61822 0.831455 5.08729 0.633943C6.56884 0.434754 8.50419 0.433832 11.1429 0.433832H12.8571C15.4958 0.433832 17.4312 0.434754 18.9127 0.633943C20.3818 0.831455 21.3395 1.21672 22.0614 1.9386L22.3682 1.63183L22.0614 1.9386C22.7833 2.66047 23.1685 3.61822 23.3661 5.08729C23.5652 6.56884 23.5662 8.50419 23.5662 11.1429V12.8571C23.5662 15.4958 23.5652 17.4312 23.3661 18.9127C23.1685 20.3818 22.7833 21.3395 22.0614 22.0614C21.3395 22.7833 20.3818 23.1685 18.9127 23.3661C17.4312 23.5652 15.4958 23.5662 12.8571 23.5662H11.1429C8.50419 23.5662 6.56884 23.5652 5.08729 23.3661C3.61822 23.1685 2.66047 22.7833 1.9386 22.0614L1.63183 22.3682L1.9386 22.0614C1.21672 21.3395 0.831455 20.3818 0.633943 18.9127C0.434754 17.4312 0.433832 15.4958 0.433832 12.8571V11.1429C0.433832 8.50419 0.434754 6.56884 0.633943 5.08729C0.831455 3.61822 1.21672 2.66047 1.9386 1.9386Z" fill="white" stroke="#DCDCDC" stroke-width="0.867665"/>
<path d="M16.0311 14.9861V14.9842C13.8807 14.956 12.4618 14.4333 12.4618 12.134L12.457 10.6172H13.5648L13.5696 12.134C13.5696 13.659 14.2646 13.9308 16.2235 13.9308H16.2973C17.202 13.9217 18.2102 13.7548 18.8775 13.5058V10.6181H19.9853V14.8949H18.8775V14.6231C17.9718 14.8894 16.933 14.987 16.2235 14.987H16.0321L16.0311 14.9861Z" fill="#004FA3"/>
<path d="M7.58092 14.9877V14.9859C5.48799 14.9594 4.08824 14.4632 4.01451 12.3189H4.01164L4.00781 12.1365V9.01172H5.11459V10.6197H11.7256V11.675H5.11459L5.11842 12.1365C5.11842 13.6615 5.81351 13.9324 7.7724 13.9324H7.84613C8.75089 13.9233 9.75906 13.7564 10.4264 13.5074V12.1073H11.5341V14.8965H10.4264V14.6247C9.52066 14.891 8.48186 14.9886 7.7724 14.9886H7.58092V14.9877Z" fill="#004FA3"/>
</svg>
