<svg width="150" height="27" viewBox="0 0 150 27" fill="none" xmlns="http://www.w3.org/2000/svg">
<path d="M52.9888 26.948V26.9398C43.5167 26.8125 37.2667 24.4608 37.2667 14.1138L37.2456 7.28827H42.125L42.1461 14.1138C42.1461 20.9762 45.2079 22.1993 53.8365 22.1993H54.1612C58.1465 22.1582 62.5874 21.4071 65.5268 20.2867V7.29237H70.4062V26.5375H65.5268V25.3145C61.5373 26.5129 56.9615 26.9521 53.8365 26.9521H52.993L52.9888 26.948Z" fill="#004FA3"/>
<path d="M53.8365 27.0002H52.9424V26.992C47.5443 26.914 44.0312 26.1178 41.5515 24.4021C38.6373 22.3869 37.2203 19.0255 37.2203 14.1167L37.1992 7.23785H42.1841V7.28711L42.2052 14.1126C42.2052 20.934 45.2543 22.1448 53.8407 22.1448H54.1654C58.1044 22.1078 62.541 21.3608 65.4804 20.2486V7.23785H70.4653V26.5856H65.4804V25.379C60.4365 26.8812 55.2999 26.9961 53.8407 26.9961L53.8365 27.0002ZM53.0436 26.8976H53.8365C55.2999 26.8976 60.4618 26.7786 65.51 25.2641L65.5774 25.2435V26.4871H70.3514V7.34046H65.5774V20.3183L65.5437 20.3307C62.5958 21.4552 58.1255 22.2104 54.157 22.2474H53.8322C45.1657 22.2474 42.0913 21.0161 42.0913 14.1126L42.0702 7.34046H37.2962L37.3173 14.1167C37.3173 18.9885 38.7217 22.3254 41.6063 24.3201C44.0776 26.0275 47.5864 26.8196 52.9888 26.8935L53.0394 26.9017L53.0436 26.8976Z" fill="#004FA3"/>
<path d="M89.843 26.946V26.9378C80.6282 26.8147 74.4583 24.582 74.1335 14.9327H74.1209L74.104 14.1118V0.0545044H78.9834V7.29043H108.1V12.0391H78.9834L79.0003 14.1159C79.0003 20.9784 82.062 22.1973 90.6906 22.1973H91.0154C95.0007 22.1563 99.4415 21.4052 102.381 20.2847V13.9846H107.26V26.5356H102.381V25.3125C98.3914 26.511 93.8157 26.9502 90.6906 26.9502H89.8472L89.843 26.946Z" fill="#004FA3"/>
<path d="M90.6864 26.9983H89.7924V26.99C84.546 26.9162 81.1005 26.1651 78.6292 24.5521C75.7361 22.6682 74.2516 19.5407 74.0871 14.9849H74.0745L74.0576 14.1148V0H79.0425V7.23592H108.159V12.0872H79.0425L79.0593 14.1148C79.0593 20.9321 82.1084 22.1469 90.6949 22.1469H91.0196C94.9586 22.11 99.3952 21.363 102.335 20.2507V13.9342H107.319V26.5878H102.335V25.3811C97.2907 26.8833 92.1541 26.9983 90.6949 26.9983H90.6864ZM89.8936 26.8956H90.6864C92.1498 26.8956 97.3118 26.7766 102.36 25.2621L102.427 25.2416V26.4852H107.201V14.0368H102.427V20.3205L102.394 20.3328C99.4458 21.4574 94.9754 22.2126 91.0069 22.2495H90.6822C82.0157 22.2495 78.9412 21.0224 78.9412 14.1148L78.9244 11.9846H108.041V7.33853H78.9244V0.102608H74.1504V14.1148L74.1673 14.8864H74.1799V14.9356C74.336 19.4791 75.8078 22.5984 78.6798 24.47C81.1469 26.0748 84.5882 26.8218 89.8388 26.8915L89.8894 26.8997L89.8936 26.8956Z" fill="#004FA3"/>
<path d="M15.7944 26.946V26.9378C6.57537 26.8188 0.409673 24.5861 0.084941 14.9368H0.0722891L0.0554199 14.1159V0.0545044H4.93062V7.29043H34.0511V12.0391H4.93062L4.94749 14.1159C4.94749 20.9784 8.00925 22.1973 16.6378 22.1973H16.9626C20.9479 22.1563 25.3887 21.4052 28.3282 20.2847V13.9846H33.2076V26.5356H28.3282V25.3125C24.3386 26.511 19.7629 26.9502 16.6378 26.9502H15.7944V26.946Z" fill="#004FA3"/>
<path d="M16.6373 26.9983H15.7432V26.99C10.4969 26.9162 7.05133 26.1651 4.57999 24.5521C1.6827 22.6682 0.193996 19.5407 0.0337384 14.9849H0.0168692L0 14.1148V0H4.98485V7.23592H34.1011V12.0872H4.98485L5.00172 14.1148C5.00172 20.9321 8.05083 22.1469 16.6373 22.1469H16.962C20.9009 22.11 25.3375 21.363 28.277 20.2507V13.9342H33.2619V26.5878H28.277V25.3811C23.2331 26.8833 18.0964 26.9983 16.6373 26.9983ZM15.8444 26.8956H16.6373C18.1007 26.8956 23.2626 26.7766 28.3107 25.2621L28.3782 25.2416V26.4852H33.1522V14.0368H28.3782V20.3205L28.3445 20.3328C25.3966 21.4574 20.9262 22.2126 16.9578 22.2495H16.633C7.96648 22.2495 4.89207 21.0224 4.89207 14.1148L4.8752 11.9846H33.9957V7.33853H4.87942V0.102608H0.105433V14.1148L0.122302 14.8864H0.134954V14.9356C0.290994 19.4791 1.76283 22.5984 4.63481 24.47C7.10193 26.0748 10.5433 26.8218 15.7938 26.8915L15.8444 26.8997V26.8956Z" fill="#004FA3"/>
<path d="M149.687 0.0545044H139.608V20.2847C136.664 21.4052 132.224 22.1563 128.238 22.1973H127.918C119.289 22.1973 116.227 20.9742 116.227 14.1118L116.206 7.28633H111.331L111.348 14.1159C111.348 24.4588 117.598 26.8147 127.07 26.9378V26.946H127.913C131.039 26.946 135.614 26.5069 139.608 25.3125V26.5356H144.496V4.80731H149.687V0.0545044Z" fill="#004FA3"/>
<path d="M127.918 26.9983H127.024V26.99C121.63 26.9162 118.112 26.1158 115.633 24.4043C112.719 22.3891 111.302 19.0277 111.302 14.1189L111.285 7.24003H116.265V7.28928L116.286 14.1148C116.286 20.9362 119.335 22.151 127.922 22.151H128.242C132.181 22.11 136.618 21.3671 139.557 20.2548V0H149.742V4.85952H144.551V26.5837H139.557V25.3811C134.505 26.8792 129.373 26.9983 127.918 26.9983ZM127.125 26.8956H127.918C129.377 26.8956 134.535 26.7766 139.595 25.2662L139.663 25.2457V26.4852H144.445V4.75691H149.637V0.102608H139.663V20.3205L139.629 20.3328C136.677 21.4574 132.207 22.2085 128.242 22.2495H127.922C119.255 22.2495 116.181 21.0182 116.181 14.1107L116.16 7.33853H111.39L111.407 14.1148C111.407 18.9866 112.811 22.3234 115.696 24.3181C118.167 26.0255 121.676 26.8177 127.078 26.8874H127.129V26.8956H127.125Z" fill="#004FA3"/>
</svg>
