<svg width="67" height="12" viewBox="0 0 67 12" fill="none" xmlns="http://www.w3.org/2000/svg">
<path d="M23.5509 11.9796V11.9759C19.3411 11.9194 16.5633 10.8742 16.5633 6.2755L16.5539 3.24194H18.7225L18.7319 6.2755C18.7319 9.32547 20.0927 9.86906 23.9276 9.86906H24.0719C25.8432 9.85082 27.8169 9.517 29.1233 9.01901V3.24377H31.292V11.7972H29.1233V11.2536C27.3502 11.7862 25.3165 11.9814 23.9276 11.9814H23.5527L23.5509 11.9796Z" fill="white"/>
<path d="M23.9274 12.003H23.53V11.9993C21.1308 11.9647 19.5695 11.6108 18.4674 10.8483C17.1722 9.95265 16.5424 8.45867 16.5424 6.27699L16.533 3.21973H18.7485V3.24162L18.7579 6.27517C18.7579 9.3069 20.113 9.84502 23.9292 9.84502H24.0736C25.8242 9.8286 27.796 9.49661 29.1025 9.00227V3.21973H31.318V11.8187H29.1025V11.2824C26.8607 11.9501 24.5778 12.0012 23.9292 12.0012L23.9274 12.003ZM23.575 11.9574H23.9274C24.5778 11.9574 26.872 11.9045 29.1156 11.2314L29.1456 11.2223V11.775H31.2673V3.26533H29.1456V9.03328L29.1306 9.03875C27.8204 9.53856 25.8336 9.87421 24.0698 9.89062H23.9255C20.0737 9.89062 18.7073 9.34338 18.7073 6.27517L18.6979 3.26533H16.5761L16.5855 6.27699C16.5855 8.44225 17.2097 9.92528 18.4917 10.8118C19.5901 11.5707 21.1496 11.9227 23.5506 11.9556L23.5731 11.9592L23.575 11.9574Z" fill="white"/>
<path d="M39.9305 11.9789V11.9752C35.835 11.9205 33.0928 10.9282 32.9485 6.63962H32.9429L32.9354 6.2748V0.0270996H35.104V3.24307H48.0446V5.3536H35.104L35.1115 6.27662C35.1115 9.32659 36.4723 9.86836 40.3072 9.86836H40.4515C42.2228 9.85012 44.1965 9.5163 45.5029 9.01831V6.21825H47.6716V11.7965H45.5029V11.2529C43.7298 11.7855 41.6961 11.9807 40.3072 11.9807H39.9323L39.9305 11.9789Z" fill="white"/>
<path d="M40.305 12.0022H39.9077V11.9985C37.576 11.9657 36.0446 11.6319 34.9462 10.915C33.6604 10.0777 33.0006 8.68768 32.9275 6.66288H32.9219L32.9144 6.27616V0.00292969H35.1299V3.2189H48.0705V5.37504H35.1299L35.1374 6.27616C35.1374 9.30607 36.4926 9.84601 40.3088 9.84601H40.4531C42.2037 9.8296 44.1756 9.4976 45.482 9.00326V6.1959H47.6975V11.8197H45.482V11.2834C43.2403 11.9511 40.9573 12.0022 40.3088 12.0022H40.305ZM39.9526 11.9565H40.305C40.9554 11.9565 43.2496 11.9036 45.4932 11.2305L45.5232 11.2214V11.7741H47.645V6.2415H45.5232V9.03427L45.5082 9.03974C44.1981 9.53956 42.2112 9.8752 40.4475 9.89162H40.3031C36.4513 9.89162 35.0849 9.3462 35.0849 6.27616L35.0774 5.32943H48.018V3.2645H35.0774V0.0485333H32.9557V6.27616L32.9632 6.6191H32.9688V6.64099C33.0381 8.66032 33.6923 10.0467 34.9687 10.8785C36.0652 11.5917 37.5947 11.9237 39.9283 11.9547L39.9508 11.9584L39.9526 11.9565Z" fill="white"/>
<path d="M7.01964 11.9789V11.9752C2.92229 11.9223 0.181982 10.93 0.0376566 6.64145H0.0320336L0.0245361 6.27662V0.0270996H2.19129V3.24307H15.1337V5.3536H2.19129L2.19879 6.27662C2.19879 9.32659 3.55958 9.86836 7.39451 9.86836H7.53884C9.31011 9.85012 11.2838 9.5163 12.5902 9.01831V6.21825H14.7589V11.7965H12.5902V11.2529C10.8171 11.7855 8.78341 11.9807 7.39451 11.9807H7.01964V11.9789Z" fill="white"/>
<path d="M7.39434 11.9997H6.99698V11.9961C4.66528 11.9632 3.13393 11.6294 2.03555 10.9125C0.747869 10.0752 0.0862205 8.68524 0.0149949 6.66044H0.00749743L0 6.27372V0.000488281H2.21549V3.21646H15.1561V5.37259H2.21549L2.22299 6.27372C2.22299 9.30363 3.57815 9.84357 7.39434 9.84357H7.53867C9.28932 9.82716 11.2611 9.49516 12.5676 9.00082V6.19346H14.7831V11.8173H12.5676V11.281C10.3258 11.9486 8.04287 11.9997 7.39434 11.9997ZM7.04196 11.9541H7.39434C8.04475 11.9541 10.339 11.9012 12.5826 11.2281L12.6126 11.219V11.7717H14.7343V6.23906H12.6126V9.03183L12.5976 9.0373C11.2874 9.53712 9.30057 9.87276 7.53679 9.88918H7.39247C3.54066 9.88918 2.17426 9.34376 2.17426 6.27372L2.16676 5.32699H15.1092V3.26206H2.16863V0.0460919H0.046859V6.27372L0.0543564 6.61666H0.0599795V6.63855C0.129331 8.65788 0.783482 10.0442 2.05992 10.876C3.15642 11.5893 4.6859 11.9213 7.01947 11.9523L7.04196 11.9559V11.9541Z" fill="white"/>
<path d="M66.527 0.0270996H62.0473V9.01831C60.739 9.5163 58.7653 9.85012 56.994 9.86836H56.8516C53.0167 9.86836 51.6559 9.32476 51.6559 6.27479L51.6465 3.24124H49.4797L49.4872 6.27662C49.4872 10.8735 52.265 11.9205 56.4748 11.9752V11.9789H56.8497C58.2386 11.9789 60.2723 11.7837 62.0473 11.2529V11.7965H64.2197V2.13946H66.527V0.0270996Z" fill="white"/>
<path d="M56.8513 12.0022H56.4539V11.9985C54.0566 11.9657 52.4934 11.61 51.3913 10.8493C50.0961 9.95364 49.4663 8.45967 49.4663 6.27799L49.4588 3.22072H51.6724V3.24261L51.6818 6.27616C51.6818 9.30789 53.037 9.84784 56.8531 9.84784H56.9956C58.7462 9.8296 60.7181 9.49943 62.0245 9.00508V0.00292969H66.5511V2.16272H64.2437V11.8179H62.0245V11.2834C59.779 11.9493 57.4979 12.0022 56.8513 12.0022ZM56.4989 11.9565H56.8513C57.4998 11.9565 59.7921 11.9037 62.0414 11.2324L62.0714 11.2232V11.7741H64.1969V2.11711H66.5042V0.0485333H62.0714V9.03427L62.0564 9.03974C60.7443 9.53956 58.7575 9.87338 56.9956 9.89162H56.8531C53.0013 9.89162 51.6349 9.34437 51.6349 6.27434L51.6256 3.2645H49.5057L49.5132 6.27616C49.5132 8.44142 50.1373 9.92445 51.4194 10.811C52.5178 11.5698 54.0772 11.9219 56.4783 11.9529H56.5008V11.9565H56.4989Z" fill="white"/>
</svg>
